HIERARCHY
ROOT Root
{
  OFFSET 0.0 0.0 0.0
  CHANNELS 6 Xposition Yposition Zposition Zrotation Yrotation Xrotation
  JOINT Hips
  {
    OFFSET 0.0 100.0 0.0
    CHANNELS 6 Xposition Yposition Zposition Zrotation Yrotation Xrotation
    JOINT Spine1
    {
      OFFSET 5.003913 -0.037094 -0.013727
      CHANNELS 3 Zrotation Yrotation Xrotation
      JOINT Spine2
      {
        OFFSET 7.125363 -1e-06 0.0
        CHANNELS 3 Zrotation Yrotation Xrotation
        JOINT Chest
        {
          OFFSET 7.594027 1e-06 0.0
          CHANNELS 3 Zrotation Yrotation Xrotation
          JOINT Neck1
          {
            OFFSET 26.313086 -0.460272 -0.181672
            CHANNELS 3 Zrotation Yrotation Xrotation
            JOINT Neck2
            {
              OFFSET 8.045911 0.0 0.0
              CHANNELS 3 Zrotation Yrotation Xrotation
              JOINT Head
              {
                OFFSET 6.432774 0.0 0.0
                CHANNELS 3 Zrotation Yrotation Xrotation
                JOINT HeadEnd
                {
                  OFFSET 16.169773 0.06451 0.00362
                  CHANNELS 3 Zrotation Yrotation Xrotation
                }
                JOINT Jaw
                {
                  OFFSET 0.108741 3.12938 0.002639
                  CHANNELS 3 Zrotation Yrotation Xrotation
                }
                JOINT LeftEye
                {
                  OFFSET 4.45173 8.166359 3.206392
                  CHANNELS 3 Zrotation Yrotation Xrotation
                }
                JOINT RightEye
                {
                  OFFSET 4.436895 8.135758 -3.222429
                  CHANNELS 3 Zrotation Yrotation Xrotation
                }
              }
            }
          }
          JOINT LeftShoulder
          {
            OFFSET 23.218927 5.195579 1.621656
            CHANNELS 3 Zrotation Yrotation Xrotation
            JOINT LeftArm
            {
              OFFSET 15.902118 2e-06 -2e-06
              CHANNELS 3 Zrotation Yrotation Xrotation
              JOINT LeftForeArm
              {
                OFFSET 28.739307 0.0 -1e-06
                CHANNELS 3 Zrotation Yrotation Xrotation
                JOINT LeftHand
                {
                  OFFSET 27.093981 -4e-06 0.0
                  CHANNELS 3 Zrotation Yrotation Xrotation
                  JOINT LeftHandThumb1
                  {
                    OFFSET 2.276781 3.380274 0.83384
                    CHANNELS 3 Zrotation Yrotation Xrotation
                    JOINT LeftHandThumb2
                    {
                      OFFSET 4.705309 -1e-06 -1e-06
                      CHANNELS 3 Zrotation Yrotation Xrotation
                      JOINT LeftHandThumb3
                      {
                        OFFSET 2.798515 0.0 3e-06
                        CHANNELS 3 Zrotation Yrotation Xrotation
                        JOINT LeftHandThumbEnd
                        {
                          OFFSET 3.180793 4e-06 -4e-06
                          CHANNELS 3 Zrotation Yrotation Xrotation
                        }
                      }
                    }
                  }
                  JOINT LeftHandIndex1
                  {
                    OFFSET 3.247786 2.352677 0.137192
                    CHANNELS 3 Zrotation Yrotation Xrotation
                    JOINT LeftHandIndex2
                    {
                      OFFSET 6.367095 1e-06 0.0
                      CHANNELS 3 Zrotation Yrotation Xrotation
                      JOINT LeftHandIndex3
                      {
                        OFFSET 3.662364 0.0 0.0
                        CHANNELS 3 Zrotation Yrotation Xrotation
                        JOINT LeftHandIndex4
                        {
                          OFFSET 2.329242 4e-06 -4e-06
                          CHANNELS 3 Zrotation Yrotation Xrotation
                          JOINT LeftHandIndexEnd
                          {
                            OFFSET 2.767823 1e-06 0.0
                            CHANNELS 3 Zrotation Yrotation Xrotation
                          }
                        }
                      }
                    }
                  }
                  JOINT LeftHandMiddle1
                  {
                    OFFSET 3.163612 0.945023 -0.406112
                    CHANNELS 3 Zrotation Yrotation Xrotation
                    JOINT LeftHandMiddle2
                    {
                      OFFSET 6.276789 3e-06 0.0
                      CHANNELS 3 Zrotation Yrotation Xrotation
                      JOINT LeftHandMiddle3
                      {
                        OFFSET 4.35652 -1e-06 4e-06
                        CHANNELS 3 Zrotation Yrotation Xrotation
                        JOINT LeftHandMiddle4
                        {
                          OFFSET 2.996877 0.0 8e-06
                          CHANNELS 3 Zrotation Yrotation Xrotation
                          JOINT LeftHandMiddleEnd
                          {
                            OFFSET 2.323256 3e-06 -4e-06
                            CHANNELS 3 Zrotation Yrotation Xrotation
                          }
                        }
                      }
                    }
                  }
                  JOINT LeftHandRing1
                  {
                    OFFSET 2.882606 -0.309162 0.107445
                    CHANNELS 3 Zrotation Yrotation Xrotation
                    JOINT LeftHandRing2
                    {
                      OFFSET 6.033198 0.0 4e-06
                      CHANNELS 3 Zrotation Yrotation Xrotation
                      JOINT LeftHandRing3
                      {
                        OFFSET 4.350578 3e-06 0.0
                        CHANNELS 3 Zrotation Yrotation Xrotation
                        JOINT LeftHandRing4
                        {
                          OFFSET 2.651321 2e-06 -7e-06
                          CHANNELS 3 Zrotation Yrotation Xrotation
                          JOINT LeftHandRingEnd
                          {
                            OFFSET 1.937663 1e-06 -4e-06
                            CHANNELS 3 Zrotation Yrotation Xrotation
                          }
                        }
                      }
                    }
                  }
                  JOINT LeftHandPinky1
                  {
                    OFFSET 2.865315 -1.525436 0.575687
                    CHANNELS 3 Zrotation Yrotation Xrotation
                    JOINT LeftHandPinky2
                    {
                      OFFSET 5.54936 1e-06 -8e-06
                      CHANNELS 3 Zrotation Yrotation Xrotation
                      JOINT LeftHandPinky3
                      {
                        OFFSET 3.070974 0.0 -4e-06
                        CHANNELS 3 Zrotation Yrotation Xrotation
                        JOINT LeftHandPinky4
                        {
                          OFFSET 1.549672 1e-06 0.0
                          CHANNELS 3 Zrotation Yrotation Xrotation
                          JOINT LeftHandPinkyEnd
                          {
                            OFFSET 1.952123 0.0 0.0
                            CHANNELS 3 Zrotation Yrotation Xrotation
                          }
                        }
                      }
                    }
                  }
                }
              }
            }
          }
          JOINT RightShoulder
          {
            OFFSET 23.161716 5.296122 -1.380114
            CHANNELS 3 Zrotation Yrotation Xrotation
            JOINT RightArm
            {
              OFFSET -16.027195 -2e-06 1.1e-05
              CHANNELS 3 Zrotation Yrotation Xrotation
              JOINT RightForeArm
              {
                OFFSET -28.736639 4e-06 2e-06
                CHANNELS 3 Zrotation Yrotation Xrotation
                JOINT RightHand
                {
                  OFFSET -27.133619 6e-06 0.0
                  CHANNELS 3 Zrotation Yrotation Xrotation
                  JOINT RightHandThumb1
                  {
                    OFFSET -2.274328 -3.351035 -0.83067
                    CHANNELS 3 Zrotation Yrotation Xrotation
                    JOINT RightHandThumb2
                    {
                      OFFSET -4.703594 -3e-06 2e-06
                      CHANNELS 3 Zrotation Yrotation Xrotation
                      JOINT RightHandThumb3
                      {
                        OFFSET -2.794935 -4e-06 -3e-06
                        CHANNELS 3 Zrotation Yrotation Xrotation
                        JOINT RightHandThumbEnd
                        {
                          OFFSET -3.183852 4e-06 1e-06
                          CHANNELS 3 Zrotation Yrotation Xrotation
                        }
                      }
                    }
                  }
                  JOINT RightHandIndex1
                  {
                    OFFSET -3.253496 -2.33755 -0.127667
                    CHANNELS 3 Zrotation Yrotation Xrotation
                    JOINT RightHandIndex2
                    {
                      OFFSET -6.344434 0.0 0.0
                      CHANNELS 3 Zrotation Yrotation Xrotation
                      JOINT RightHandIndex3
                      {
                        OFFSET -3.654871 0.0 -8e-06
                        CHANNELS 3 Zrotation Yrotation Xrotation
                        JOINT RightHandIndex4
                        {
                          OFFSET -2.327586 -1e-06 0.0
                          CHANNELS 3 Zrotation Yrotation Xrotation
                          JOINT RightHandIndexEnd
                          {
                            OFFSET -2.770001 3e-06 8e-06
                            CHANNELS 3 Zrotation Yrotation Xrotation
                          }
                        }
                      }
                    }
                  }
                  JOINT RightHandMiddle1
                  {
                    OFFSET -3.168223 -0.944764 0.411762
                    CHANNELS 3 Zrotation Yrotation Xrotation
                    JOINT RightHandMiddle2
                    {
                      OFFSET -6.266691 -1e-06 -4e-06
                      CHANNELS 3 Zrotation Yrotation Xrotation
                      JOINT RightHandMiddle3
                      {
                        OFFSET -4.348901 0.0 0.0
                        CHANNELS 3 Zrotation Yrotation Xrotation
                        JOINT RightHandMiddle4
                        {
                          OFFSET -3.00024 2e-06 -4e-06
                          CHANNELS 3 Zrotation Yrotation Xrotation
                          JOINT RightHandMiddleEnd
                          {
                            OFFSET -2.321477 -4e-06 -4e-06
                            CHANNELS 3 Zrotation Yrotation Xrotation
                          }
                        }
                      }
                    }
                  }
                  JOINT RightHandRing1
                  {
                    OFFSET -2.885654 0.293261 -0.119232
                    CHANNELS 3 Zrotation Yrotation Xrotation
                    JOINT RightHandRing2
                    {
                      OFFSET -6.032835 -1e-06 -4e-06
                      CHANNELS 3 Zrotation Yrotation Xrotation
                      JOINT RightHandRing3
                      {
                        OFFSET -4.33881 0.0 -4e-06
                        CHANNELS 3 Zrotation Yrotation Xrotation
                        JOINT RightHandRing4
                        {
                          OFFSET -2.654903 -4e-06 -4e-06
                          CHANNELS 3 Zrotation Yrotation Xrotation
                          JOINT RightHandRingEnd
                          {
                            OFFSET -1.935122 0.0 4e-06
                            CHANNELS 3 Zrotation Yrotation Xrotation
                          }
                        }
                      }
                    }
                  }
                  JOINT RightHandPinky1
                  {
                    OFFSET -2.866241 1.503904 -0.60527
                    CHANNELS 3 Zrotation Yrotation Xrotation
                    JOINT RightHandPinky2
                    {
                      OFFSET -5.553177 -2e-06 0.0
                      CHANNELS 3 Zrotation Yrotation Xrotation
                      JOINT RightHandPinky3
                      {
                        OFFSET -3.062664 -1e-06 -4e-06
                        CHANNELS 3 Zrotation Yrotation Xrotation
                        JOINT RightHandPinky4
                        {
                          OFFSET -1.546529 2e-06 4e-06
                          CHANNELS 3 Zrotation Yrotation Xrotation
                          JOINT RightHandPinkyEnd
                          {
                            OFFSET -1.952341 0.0 -4e-06
                            CHANNELS 3 Zrotation Yrotation Xrotation
                          }
                        }
                      }
                    }
                  }
                }
              }
            }
          }
        }
      }
    }
    JOINT LeftLeg
    {
      OFFSET -8.443107 2.567604 10.043214
      CHANNELS 3 Zrotation Yrotation Xrotation
      JOINT LeftShin
      {
        OFFSET 43.229198 1e-06 -1e-06
        CHANNELS 3 Zrotation Yrotation Xrotation
        JOINT LeftFoot
        {
          OFFSET 42.298611 1e-06 1e-06
          CHANNELS 3 Zrotation Yrotation Xrotation
          JOINT LeftToeBase
          {
            OFFSET 14.165858 1e-06 0.0
            CHANNELS 3 Zrotation Yrotation Xrotation
            JOINT LeftToeEnd
            {
              OFFSET 6.7141 -0.234461 0.0
              CHANNELS 3 Zrotation Yrotation Xrotation
            }
          }
        }
      }
    }
    JOINT RightLeg
    {
      OFFSET -8.303923 2.592729 -10.047278
      CHANNELS 3 Zrotation Yrotation Xrotation
      JOINT RightShin
      {
        OFFSET -43.369682 0.0 1e-06
        CHANNELS 3 Zrotation Yrotation Xrotation
        JOINT RightFoot
        {
          OFFSET -42.260784 4e-06 2e-06
          CHANNELS 3 Zrotation Yrotation Xrotation
          JOINT RightToeBase
          {
            OFFSET -14.222245 -2e-06 -1e-06
            CHANNELS 3 Zrotation Yrotation Xrotation
            JOINT RightToeEnd
            {
              OFFSET -6.660062 0.232574 -2e-06
              CHANNELS 3 Zrotation Yrotation Xrotation
            }
          }
        }
      }
    }
  }
}
MOTION
Frames: 4
Frame Time: 0.03333333333333333
0.0 0.0 0.0 0.0 -0.0 0.0 1.742193 98.822548 -6.033646 90.503235 7.970889 90.596992 -4.153735 0.357449 -0.408167 -12.083508 -0.590902 -0.427698 18.367603 -2.221309 -2.639495 24.741671 -5.952016 2.844655 -2.762765 -0.582126 -0.733165 -27.038818 1.883602 -1.724785 6e-06 1e-06 -0.0 0.038765 -0.001666 -0.131792 0.077898 -0.050181 -0.109337 0.098511 0.045612 -0.149265 -178.998383 -71.052864 -172.216537 70.304771 -28.748783 29.510263 103.319534 0.345513 2.378312 16.656908 11.373251 -34.36348 17.636707 -26.323114 52.411777 -19.466888 -14.395773 29.410782 2e-06 -8.774939 1e-05 14.528204 -17.66551 6.498566 -0.609779 -1.795666 -3.889365 -4.80714 -11.046939 -2.937874 -9e-06 -20.976336 2.3e-05 -5.020076 -25.034031 -4.031926 4e-06 -0.0 0.0 -10.634618 -5.68702 -3.565614 10.573385 -17.923161 -3.113939 -1.1e-05 -13.82142 1.5e-05 -0.501819 -31.182163 -4.027063 -11.260867 -58.22427 6.994489 -13.982827 -7.150264 -2.875059 13.772874 -8.401582 -3.218288 0.347695 -34.212132 0.771713 -0.963078 -17.733721 2.621091 0.0 -0.0 -0.0 -17.346573 -20.095409 -4.201797 21.757784 -1.638381 3.866449 -4e-06 -6.338919 1e-05 -1.697626 -22.592194 -6.194104 -1e-06 -4e-06 -4e-06 -10.898187 -66.571259 -159.520905 60.667892 -31.400242 43.658031 111.261215 3.879688 0.155696 27.113863 18.443495 -17.018551 22.18232 -20.376263 49.933956 -16.702038 -16.74378 28.476986 1e-06 -12.690812 1.5e-05 15.471058 -17.388514 2.93362 -0.105921 -1.51387 -4.275932 -5.039108 -5.612954 -2.953596 -1e-06 -11.020728 1e-05 -6.111421 -15.895697 -3.840543 2e-06 -1e-06 1e-06 -10.283476 -5.680352 -4.341884 11.028434 -11.302561 -2.372667 -1.384294 -14.238843 -6.32023 -0.625467 -26.924843 -3.827678 -4.254627 -50.516525 -3.289607 -13.708662 -7.36356 -3.720975 18.14139 -14.052937 -3.242726 -1.8e-05 -18.787642 1.9e-05 -0.429738 -8.456251 2.555578 -2e-06 2e-06 -1e-06 -15.923714 -20.094723 -5.473627 30.419611 -7.190904 1.735928 -8e-06 -8.163085 1e-05 -1.861959 -22.862053 -6.168068 0.0 -5e-06 1e-06 -171.645477 -6.23675 -14.732425 14.593881 -0.077162 0.338948 -81.66391 -4.664785 -12.821983 -5.17761 1.561579 2.103329 -1.000004 -1e-06 -0.0 6.678051 -10.581057 -11.678618 12.4697 0.009776 0.062869 -77.479057 -2.627204 -12.568453 -3.962134 0.495397 1.637593 -1.000004 0.0 0.0 
0.0 0.0 0.0 0.0 -0.0 0.0 1.80429 98.820457 -6.005502 90.549873 7.992025 90.591469 -4.175685 0.31754 -0.423069 -12.058502 -0.554845 -0.38832 18.319113 -2.215079 -2.630864 24.690321 -6.03457 2.841111 -2.789135 -0.556041 -0.733642 -27.127176 1.852875 -1.660513 6e-06 -0.0 0.0 0.029905 0.001271 -0.100084 0.085921 -0.053527 -0.076114 0.098981 0.055116 -0.11897 -178.916779 -71.022263 -172.224487 70.426376 -28.709454 29.246784 103.283585 0.182386 2.303505 16.646616 11.464761 -34.204189 17.636703 -26.323164 52.411861 -19.466858 -14.395835 29.410801 7e-06 -8.774961 1.4e-05 14.442781 -17.759016 6.587152 -0.609781 -1.795664 -3.889368 -4.807157 -11.046927 -2.937864 -3.6e-05 -20.976307 4.3e-05 -5.020128 -25.03401 -4.031919 7e-06 -1e-06 1e-06 -10.634636 -5.68702 -3.565612 10.573387 -17.923141 -3.113929 -2.7e-05 -13.821412 2.7e-05 -0.501874 -31.18214 -4.02705 -11.359549 -58.240246 6.999812 -13.982847 -7.150262 -2.875054 13.772891 -8.401561 -3.218289 0.347632 -34.212093 0.771767 -0.963116 -17.733707 2.621102 -1e-06 -0.0 0.0 -17.346609 -20.095394 -4.201785 21.757826 -1.638371 3.866449 -1e-05 -6.338912 1.7e-05 -1.697679 -22.592161 -6.194081 -1e-06 -4e-06 -3e-06 -10.931918 -66.570839 -159.389481 60.619759 -31.379522 43.520256 111.335251 3.775256 0.038601 26.983616 18.428156 -16.958591 22.182281 -20.376263 49.93388 -16.701967 -16.743757 28.476915 1e-05 -12.690782 1.4e-05 15.392488 -17.408167 2.915193 -0.105922 -1.513863 -4.275925 -5.039103 -5.612938 -2.953585 -1.1e-05 -11.020697 2.1e-05 -6.111427 -15.89565 -3.840523 -0.0 -1e-06 -0.0 -10.283463 -5.680338 -4.341873 11.028409 -11.302529 -2.372649 -1.384304 -14.2388 -6.320202 -0.625505 -26.924761 -3.827645 -4.105692 -50.270943 -3.408229 -13.708646 -7.363546 -3.720963 18.141342 -14.052889 -3.242708 -3.4e-05 -18.787582 3.3e-05 -0.429746 -8.45622 2.555571 0.0 -1e-06 -1e-06 -15.9237 -20.094673 -5.473603 30.419548 -7.190867 1.735935 -1.7e-05 -8.163061 1.6e-05 -1.861994 -22.861963 -6.168027 0.0 -2e-06 -1e-06 -171.57338 -6.12046 -14.599689 14.527388 -0.070726 0.363493 -81.674706 -4.771149 -12.863756 -5.20265 1.579157 2.110351 -1.000004 0.0 -0.0 6.744173 -10.642465 -11.49128 12.405962 0.000898 0.064129 -77.450066 -2.824072 -12.650879 -3.861009 0.465972 1.637932 -1.000006 1e-06 0.0 
0.0 0.0 0.0 0.0 -0.0 0.0 1.867469 98.805809 -6.004479 90.589607 8.0295 90.576965 -4.183449 0.305829 -0.430081 -12.055298 -0.538159 -0.376345 18.34532 -2.221066 -2.603388 24.60391 -6.08452 2.84372 -2.836753 -0.517189 -0.738577 -27.17617 1.804084 -1.611055 6e-06 0.0 0.0 0.021939 0.003876 -0.085929 0.06737 -0.055935 -0.060442 0.078355 0.062577 -0.106844 -178.870468 -71.028503 -172.202576 70.51059 -28.651787 29.025606 103.233772 0.101463 2.247933 16.707228 11.449763 -34.288143 17.636719 -26.322918 52.41156 -19.46677 -14.395695 29.410624 2e-06 -8.774897 -2e-06 14.383504 -17.739805 6.618378 -0.609778 -1.795662 -3.88935 -4.807125 -11.046871 -2.937871 4e-06 -20.976171 7e-06 -5.020014 -25.033819 -4.031936 6e-06 2e-06 -0.0 -10.634592 -5.686999 -3.565609 10.573344 -17.923048 -3.113919 1e-06 -13.821311 1.1e-05 -0.501785 -31.181852 -4.027051 -11.361187 -58.294048 6.98667 -13.982791 -7.150232 -2.875063 13.77282 -8.401537 -3.218263 0.347724 -34.211857 0.771691 -0.963058 -17.733572 2.621077 1e-06 -0.0 -2e-06 -17.346518 -20.095314 -4.20181 21.757704 -1.638382 3.86646 0.0 -6.338869 6e-06 -1.697606 -22.59197 -6.194076 -1e-06 -3e-06 -4e-06 -10.932581 -66.604439 -159.318573 60.651672 -31.338415 43.314194 111.396736 3.667724 -0.037541 26.865364 18.433702 -16.747089 22.18222 -20.376015 49.933559 -16.701918 -16.743603 28.476707 -9e-06 -12.690682 -1e-06 15.326935 -17.405336 2.901103 -0.105922 -1.513865 -4.2759 -5.039062 -5.612898 -2.953576 1.3e-05 -11.02061 -4e-06 -6.111324 -15.8955 -3.84052 1e-06 -3e-06 1e-06 -10.283405 -5.680309 -4.341859 11.028351 -11.302472 -2.372646 -1.384263 -14.238688 -6.320174 -0.625408 -26.924494 -3.827647 -4.016257 -50.119377 -3.507524 -13.708576 -7.363504 -3.72096 18.141243 -14.052821 -3.242696 1.7e-05 -18.787424 0.0 -0.429713 -8.456138 2.555542 -1e-06 1e-06 -2e-06 -15.923594 -20.09457 -5.473613 30.41934 -7.190868 1.735933 4e-06 -8.162988 2e-06 -1.861889 -22.861719 -6.168005 2e-06 -2e-06 1e-06 -171.578903 -6.029139 -14.477746 14.627873 -0.071651 0.375284 -81.748436 -4.889729 -12.844658 -5.185847 1.591757 2.119418 -1.000005 0.0 0.0 6.721174 -10.728845 -11.327713 12.53019 0.003644 0.056424 -77.49469 -2.938394 -12.742319 -3.790164 0.45715 1.639271 -1.000004 2e-06 1e-06 
0.0 0.0 0.0 0.0 -0.0 0.0 1.905102 98.795105 -6.011317 90.627159 8.062409 90.560959 -4.177724 0.294687 -0.42667 -12.058506 -0.52471 -0.38105 18.380629 -2.234494 -2.566463 24.541843 -6.131509 2.834078 -2.872366 -0.488787 -0.722998 -27.227409 1.778231 -1.595568 7e-06 0.0 0.0 0.019096 0.005154 -0.078946 0.047563 -0.056912 -0.052573 0.058453 0.065794 -0.101803 -178.813553 -71.039742 -172.222977 70.544182 -28.615499 28.921938 103.18676 0.079255 2.208354 16.767458 11.384398 -34.37212 17.636728 -26.323092 52.411846 -19.466803 -14.39578 29.410761 1.4e-05 -8.774943 3e-06 14.334385 -17.71316 6.64148 -0.609786 -1.795661 -3.889364 -4.807159 -11.046906 -2.937871 -4e-05 -20.976242 2.6e-05 -5.020103 -25.033924 -4.031956 7e-06 -0.0 -0.0 -10.634634 -5.687019 -3.565618 10.573362 -17.923086 -3.11392 -2.6e-05 -13.821362 2e-05 -0.501861 -31.181995 -4.027071 -11.374866 -58.373074 7.020265 -13.982841 -7.150259 -2.875062 13.772863 -8.401532 -3.218275 0.347645 -34.211983 0.771731 -0.963102 -17.733644 2.621083 -0.0 0.0 1e-06 -17.346605 -20.095371 -4.201804 21.757799 -1.638361 3.866471 -1.3e-05 -6.338895 1.3e-05 -1.697669 -22.592089 -6.194107 0.0 -6e-06 -3e-06 -10.903223 -66.682327 -159.30159 60.750324 -31.282932 43.155716 111.405762 3.632404 -0.034944 26.80958 18.503353 -16.484499 22.182383 -20.376305 49.933952 -16.701954 -16.743809 28.476921 1.1e-05 -12.690827 3e-06 15.298433 -17.428316 2.889262 -0.105923 -1.513859 -4.275927 -5.039116 -5.612931 -2.953588 -7e-06 -11.020681 2.7e-05 -6.111449 -15.895613 -3.840528 2e-06 -2e-06 2e-06 -10.283486 -5.680336 -4.341882 11.028436 -11.302517 -2.372641 -1.384313 -14.238773 -6.320201 -0.625503 -26.924696 -3.827623 -3.989001 -50.062141 -3.575245 -13.708687 -7.363546 -3.720973 18.14139 -14.052869 -3.242685 -4.2e-05 -18.787558 5.8e-05 -0.429748 -8.456204 2.555593 -0.0 -0.0 -1e-06 -15.923748 -20.094662 -5.473618 30.419634 -7.190883 1.735968 -1.7e-05 -8.163057 2.9e-05 -1.862015 -22.861931 -6.167997 1e-06 -2e-06 1e-06 -171.573486 -5.946349 -14.335078 14.680626 -0.075918 0.371494 -81.778343 -5.064066 -12.841239 -5.185083 1.603089 2.125488 -1.000003 1e-06 1e-06 6.682785 -10.800216 -11.207406 12.663899 0.001997 0.041799 -77.544701 -2.992778 -12.809709 -3.786996 0.44622 1.636363 -1.000006 0.0 0.0 
